<svg width="48" height="48" viewBox="0 0 48 48" fill="none" xmlns="http://www.w3.org/2000/svg">
<rect width="48" height="48" rx="12" fill="#AC6AFF"/>
<!-- Building base -->
<rect x="12" y="20" width="24" height="16" rx="1" fill="#0E0C15"/>
<!-- Building entrance -->
<rect x="21" y="28" width="6" height="8" fill="#AC6AFF"/>
<rect x="22.5" y="30" width="3" height="2" rx="0.5" fill="#0E0C15"/>
<!-- Windows with lights -->
<rect x="15" y="23" width="2.5" height="2" rx="0.3" fill="#AC6AFF"/>
<rect x="19" y="23" width="2.5" height="2" rx="0.3" fill="#AC6AFF"/>
<rect x="26.5" y="23" width="2.5" height="2" rx="0.3" fill="#AC6AFF"/>
<rect x="30.5" y="23" width="2.5" height="2" rx="0.3" fill="#AC6AFF"/>
<rect x="15" y="26" width="2.5" height="2" rx="0.3" fill="#0E0C15"/>
<rect x="19" y="26" width="2.5" height="2" rx="0.3" fill="#AC6AFF"/>
<rect x="26.5" y="26" width="2.5" height="2" rx="0.3" fill="#0E0C15"/>
<rect x="30.5" y="26" width="2.5" height="2" rx="0.3" fill="#AC6AFF"/>
<!-- Rooftop elements -->
<rect x="16" y="18" width="16" height="2" fill="#0E0C15"/>
<rect x="19" y="16" width="2" height="4" fill="#0E0C15"/>
<rect x="27" y="16" width="2" height="4" fill="#0E0C15"/>
<!-- Chart/graph overlay -->
<rect x="32" y="12" width="8" height="6" rx="1" fill="#0E0C15"/>
<path d="M34 16L35.5 14.5L37 15.5L38.5 13.5" stroke="#AC6AFF" stroke-width="1" fill="none"/>
<circle cx="34" cy="16" r="0.5" fill="#AC6AFF"/>
<circle cx="35.5" cy="14.5" r="0.5" fill="#AC6AFF"/>
<circle cx="37" cy="15.5" r="0.5" fill="#AC6AFF"/>
<circle cx="38.5" cy="13.5" r="0.5" fill="#AC6AFF"/>
</svg>