<svg width="48" height="48" viewBox="0 0 48 48" fill="none" xmlns="http://www.w3.org/2000/svg">
<rect width="48" height="48" rx="12" fill="#AC6AFF"/>
<!-- Shopping cart body -->
<path d="M14 16L16 17L17 28C17 29.1046 17.8954 30 19 30H31C32.1046 30 33 29.1046 33 28L34 17L36 16H14Z" fill="#0E0C15"/>
<!-- Cart handle -->
<path d="M12 12H16L17 15H35L33 17H17L16 14H12V12Z" fill="#0E0C15"/>
<!-- Shopping items in cart -->
<rect x="20" y="19" width="3" height="2" rx="0.5" fill="#AC6AFF"/>
<rect x="25" y="19" width="3" height="2" rx="0.5" fill="#AC6AFF"/>
<rect x="20" y="22" width="5" height="2" rx="0.5" fill="#AC6AFF"/>
<rect x="27" y="22" width="3" height="2" rx="0.5" fill="#AC6AFF"/>
<!-- Cart wheels -->
<circle cx="21" cy="33" r="2" fill="#0E0C15"/>
<circle cx="29" cy="33" r="2" fill="#0E0C15"/>
<circle cx="21" cy="33" r="1" fill="#AC6AFF"/>
<circle cx="29" cy="33" r="1" fill="#AC6AFF"/>
<!-- Credit card icon overlay -->
<rect x="30" y="20" width="6" height="4" rx="1" fill="#0E0C15"/>
<rect x="31" y="21" width="4" height="0.5" fill="#AC6AFF"/>
<rect x="31" y="22.5" width="2" height="0.5" fill="#AC6AFF"/>
</svg>