<svg width="48" height="48" viewBox="0 0 48 48" fill="none" xmlns="http://www.w3.org/2000/svg">
<rect width="48" height="48" rx="12" fill="#AC6AFF"/>
<!-- Portfolio case base -->
<rect x="10" y="20" width="28" height="16" rx="2" fill="#0E0C15"/>
<!-- Case handle -->
<rect x="21" y="16" width="6" height="4" rx="1" fill="#0E0C15"/>
<rect x="22" y="17" width="4" height="2" rx="0.5" fill="#AC6AFF"/>
<!-- Design layout inside -->
<rect x="13" y="23" width="8" height="6" rx="0.5" fill="#AC6AFF"/>
<rect x="22" y="23" width="6" height="2" rx="0.3" fill="#AC6AFF"/>
<rect x="22" y="26" width="8" height="1" rx="0.2" fill="#AC6AFF"/>
<rect x="22" y="28" width="6" height="1" rx="0.2" fill="#AC6AFF"/>
<rect x="13" y="30" width="15" height="1" rx="0.2" fill="#AC6AFF"/>
<rect x="13" y="32" width="10" height="1" rx="0.2" fill="#AC6AFF"/>
<!-- Creative tools overlay -->
<circle cx="33" cy="16" r="4" fill="#0E0C15"/>
<!-- Pen/brush -->
<path d="M31 14L33 12L35 14L33 18L31 16Z" fill="#AC6AFF"/>
<circle cx="33" cy="14" r="0.5" fill="#0E0C15"/>
<!-- Color palette -->
<rect x="30" y="18" width="6" height="3" rx="0.5" fill="#0E0C15"/>
<circle cx="31.5" cy="19.5" r="0.5" fill="#AC6AFF"/>
<circle cx="33" cy="19.5" r="0.5" fill="#AC6AFF"/>
<circle cx="34.5" cy="19.5" r="0.5" fill="#AC6AFF"/>
</svg>