<svg width="48" height="48" viewBox="0 0 48 48" fill="none" xmlns="http://www.w3.org/2000/svg">
<rect width="48" height="48" rx="12" fill="#AC6AFF"/>
<!-- Calendar base -->
<rect x="12" y="16" width="24" height="20" rx="2" fill="#0E0C15"/>
<!-- Calendar header -->
<rect x="12" y="16" width="24" height="4" rx="2" fill="#0E0C15"/>
<rect x="14" y="18" width="20" height="2" fill="#AC6AFF"/>
<!-- Calendar rings -->
<rect x="17" y="12" width="2" height="8" rx="1" fill="#0E0C15"/>
<rect x="29" y="12" width="2" height="8" rx="1" fill="#0E0C15"/>
<!-- Days grid -->
<rect x="15" y="22" width="2.5" height="2" rx="0.3" fill="#AC6AFF"/>
<rect x="19" y="22" width="2.5" height="2" rx="0.3" fill="#AC6AFF"/>
<rect x="23" y="22" width="2.5" height="2" rx="0.3" fill="#AC6AFF"/>
<rect x="27" y="22" width="2.5" height="2" rx="0.3" fill="#AC6AFF"/>
<rect x="31" y="22" width="2.5" height="2" rx="0.3" fill="#AC6AFF"/>
<!-- Week rows -->
<rect x="15" y="25" width="2.5" height="2" rx="0.3" fill="#AC6AFF"/>
<rect x="19" y="25" width="2.5" height="2" rx="0.3" fill="#AC6AFF"/>
<rect x="23" y="25" width="2.5" height="2" rx="0.3" fill="#0E0C15" stroke="#AC6AFF" stroke-width="0.5"/>
<rect x="27" y="25" width="2.5" height="2" rx="0.3" fill="#AC6AFF"/>
<rect x="31" y="25" width="2.5" height="2" rx="0.3" fill="#AC6AFF"/>
<!-- Highlighted appointment -->
<rect x="19" y="28" width="6" height="2" rx="1" fill="#AC6AFF"/>
<rect x="27" y="28" width="2.5" height="2" rx="0.3" fill="#AC6AFF"/>
<rect x="31" y="28" width="2.5" height="2" rx="0.3" fill="#AC6AFF"/>
<!-- Clock overlay -->
<circle cx="34" cy="30" r="4" fill="#0E0C15"/>
<circle cx="34" cy="30" r="3" stroke="#AC6AFF" stroke-width="0.5" fill="none"/>
<path d="M34 28V30L35.5 31.5" stroke="#AC6AFF" stroke-width="1" stroke-linecap="round"/>
</svg>